<?xml version="1.0" encoding="UTF-8"?>
<svg version="1.1" xmlns="http://www.w3.org/2000/svg" width="272" height="272">
<path d="M0 0 C89.76 0 179.52 0 272 0 C272 89.76 272 179.52 272 272 C182.24 272 92.48 272 0 272 C0 182.24 0 92.48 0 0 Z " fill="#000000" transform="translate(0,0)"/>
<path d="M0 0 C1.48831242 0.00667405 2.97660807 0.01863442 4.46484375 0.03515625 C5.22345703 0.03966797 5.98207031 0.04417969 6.76367188 0.04882812 C8.64326246 0.06064945 10.52281274 0.07858547 12.40234375 0.09765625 C13.57886847 3.51100835 14.74182549 6.9288322 15.90234375 10.34765625 C16.23621094 11.31574219 16.57007813 12.28382812 16.9140625 13.28125 C17.22988281 14.21582031 17.54570313 15.15039062 17.87109375 16.11328125 C18.16435547 16.97211914 18.45761719 17.83095703 18.75976562 18.71582031 C19.40234375 21.09765625 19.40234375 21.09765625 19.40234375 25.09765625 C23.69234375 25.09765625 27.98234375 25.09765625 32.40234375 25.09765625 C32.40234375 19.81765625 32.40234375 14.53765625 32.40234375 9.09765625 C35.44190795 12.13722045 37.11954174 13.98971039 39.15234375 17.53515625 C39.65894531 18.40140625 40.16554688 19.26765625 40.6875 20.16015625 C41.25339844 21.12953125 41.81929688 22.09890625 42.40234375 23.09765625 C43.78531292 25.41808335 45.18489008 27.72798925 46.58984375 30.03515625 C47.24339844 31.11667969 47.89695312 32.19820312 48.5703125 33.3125 C50.16205035 36.03088672 50.16205035 36.03088672 51.99060059 37.40641785 C54.04983822 39.87334091 53.79697317 41.76154142 53.82226562 44.94262695 C53.84613342 46.74513664 53.84613342 46.74513664 53.8704834 48.58406067 C53.87068481 49.88405502 53.87088623 51.18404938 53.87109375 52.5234375 C53.87819647 53.87241431 53.88589563 55.22138811 53.89416504 56.57035828 C53.90761527 59.39912302 53.90917732 62.22760871 53.90332031 65.05639648 C53.89743584 68.67148976 53.92795796 72.28523457 53.96843719 75.90006733 C53.99436789 78.68748617 53.99718665 81.47458313 53.99354553 84.26210594 C53.9960509 86.23961643 54.02072135 88.21705889 54.04577637 90.19441223 C53.96888622 100.20190637 53.96888622 100.20190637 51.05102539 103.66040039 C50.17696045 104.46469482 49.30289551 105.26898926 48.40234375 106.09765625 C47.36863506 107.67721719 46.37383203 109.28329523 45.4296875 110.91796875 C44.92244141 111.78292969 44.41519531 112.64789063 43.89257812 113.5390625 C42.85305553 115.33567137 41.81399681 117.13254871 40.77539062 118.9296875 C40.26943359 119.79207031 39.76347656 120.65445313 39.2421875 121.54296875 C38.79222412 122.32172363 38.34226074 123.10047852 37.87866211 123.90283203 C36.40234375 126.09765625 36.40234375 126.09765625 32.40234375 130.09765625 C32.40234375 124.81765625 32.40234375 119.53765625 32.40234375 114.09765625 C28.11234375 114.09765625 23.82234375 114.09765625 19.40234375 114.09765625 C19.15484375 115.25265625 18.90734375 116.40765625 18.65234375 117.59765625 C17.05660739 124.80159648 15.20588997 131.94358959 13.40234375 139.09765625 C7.79234375 139.09765625 2.18234375 139.09765625 -3.59765625 139.09765625 C-6.70777348 131.24051799 -9.11900066 123.17043178 -11.59765625 115.09765625 C-15.55765625 114.76765625 -19.51765625 114.43765625 -23.59765625 114.09765625 C-23.59765625 119.04765625 -23.59765625 123.99765625 -23.59765625 129.09765625 C-26.20534642 126.48996608 -27.85561503 124.31175549 -29.78515625 121.22265625 C-30.39101563 120.25585938 -30.996875 119.2890625 -31.62109375 118.29296875 C-34.38982114 113.81704187 -37.15183176 109.33719648 -39.8984375 104.84765625 C-41.09641509 102.90886033 -42.33346543 100.99394249 -43.59765625 99.09765625 C-43.89199829 96.58450317 -43.89199829 96.58450317 -43.95166016 93.54736328 C-43.97733063 92.4083255 -44.0030011 91.26928772 -44.02944946 90.09573364 C-44.04422333 88.86144623 -44.05899719 87.62715881 -44.07421875 86.35546875 C-44.09036224 85.0809787 -44.10650574 83.80648865 -44.12313843 82.49337769 C-44.15083518 79.78808054 -44.17285703 77.08327161 -44.18798828 74.37792969 C-44.20561156 71.62473657 -44.24710567 68.87359502 -44.31103516 66.12109375 C-44.95632651 37.72842037 -44.95632651 37.72842037 -35.59765625 27.09765625 C-34.51839094 25.45324151 -33.46531104 23.79119438 -32.4453125 22.109375 C-31.51837151 20.66703944 -30.59003092 19.22560221 -29.66015625 17.78515625 C-29.17998047 17.03298828 -28.69980469 16.28082031 -28.20507812 15.50585938 C-27.03033872 13.68493045 -25.81792905 11.8883905 -24.59765625 10.09765625 C-24.26765625 10.09765625 -23.93765625 10.09765625 -23.59765625 10.09765625 C-23.59765625 15.04765625 -23.59765625 19.99765625 -23.59765625 25.09765625 C-19.63765625 25.09765625 -15.67765625 25.09765625 -11.59765625 25.09765625 C-10.97890625 22.77734375 -10.97890625 22.77734375 -10.34765625 20.41015625 C-4.80966384 0.13055548 -4.80966384 0.13055548 0 0 Z " fill="#FCFCDC" transform="translate(87.59765625,85.90234375)"/>
<path d="M0 0 C3.72632139 1.32706257 5.51024408 3.75682418 7.96020508 6.74926758 C12.17844398 11.71658331 15.64203137 15.17146221 22.30078125 16.078125 C27.25551946 16.48055006 31.97269275 16.17099685 37 16 C37 23.92 37 31.84 37 40 C47.23 40 57.46 40 68 40 C68 32.08 68 24.16 68 16 C70.805 16.144375 73.61 16.28875 76.5 16.4375 C84.00234905 16.42183475 88.46479729 14.63112557 94.00976562 9.56469727 C96.66082131 6.89864831 99.24360566 4.19116386 101.71923828 1.36108398 C102.14188965 0.91192627 102.56454102 0.46276855 103 0 C103.33 0 103.66 0 104 0 C104.16226112 13.56922433 104.28660621 27.13821749 104.3626852 40.70821476 C104.39920147 47.00952 104.44872486 53.31016102 104.52807617 59.61108398 C104.60418968 65.69303848 104.64600237 71.77435453 104.6641407 77.85674858 C104.67706493 80.17604053 104.70230364 82.49529791 104.7401104 84.8143177 C104.79100697 88.06586042 104.79792022 91.31477278 104.79467773 94.56665039 C104.83242813 96.00164131 104.83242813 96.00164131 104.87094116 97.46562195 C104.81550496 102.61083233 104.21305088 105.38087282 100.57533264 109.15208435 C97.40050441 112 97.40050441 112 95 112 C94.505 113.485 94.505 113.485 94 115 C91.17443437 118.51275197 89.44932445 119.79357194 84.94439697 120.43521118 C81.02204759 120.57979104 77.11793076 120.56253539 73.1953125 120.48828125 C71.74658431 120.47894622 70.29784025 120.47183336 68.84909058 120.46684265 C65.05110466 120.4478265 61.25408731 120.39877465 57.45648193 120.34332275 C53.57528788 120.29201243 49.69393606 120.26930365 45.8125 120.24414062 C38.20789359 120.19064853 30.60408293 120.10540379 23 120 C23.01411926 119.15269821 23.02823853 118.30539642 23.04278564 117.43241882 C23.16636791 109.35881647 23.23018423 101.28726314 23.23059464 93.21267986 C23.23281391 89.06330085 23.25633815 84.91655475 23.33251953 80.76782227 C23.96228502 54.46532321 23.96228502 54.46532321 11.5697937 31.86094666 C3.90135394 22.77022517 -1.29865272 14.62275485 -0.3515625 2.5 C-0.23554687 1.675 -0.11953125 0.85 0 0 Z " fill="#48ACC8" transform="translate(124,75)"/>
<path d="M0 0 C34.65 0 69.3 0 105 0 C105 18 105 18 101.75 21.9375 C101.00983139 22.40888397 100.26966278 22.88026794 99.50706482 23.36593628 C96.98034826 25.01280868 95.13157303 26.90288173 93.07701015 29.09350395 C87.21867658 35.15104816 82.69489426 37.31899071 74.06504822 37.73361206 C72.72957798 37.74047766 71.39408123 37.74322875 70.05859375 37.7421875 C68.64148567 37.77003605 67.22441551 37.79987556 65.80738831 37.83157349 C62.85058366 37.88353485 59.89734712 37.89244548 56.94018555 37.87353516 C53.94509122 37.8592469 50.96497856 37.9142909 47.97241211 38.03759766 C20.80880341 39.14254139 20.80880341 39.14254139 9.92481995 29.89846802 C9.09498093 29.0889267 8.26514191 28.27938538 7.41015625 27.4453125 C6.63216171 26.69047577 5.85416718 25.93563904 5.05259705 25.15792847 C-2.20517107 16.72471439 0 12.53600969 0 0 Z " fill="#48AAC5" transform="translate(124,47)"/>
<path d="M0 0 C1.45978637 2.91957275 0.45980699 4.56067046 -0.43359375 7.6640625 C-0.75263672 8.78554687 -1.07167969 9.90703125 -1.40039062 11.0625 C-1.74263672 12.238125 -2.08488281 13.41375 -2.4375 14.625 C-2.77587891 15.80835938 -3.11425781 16.99171875 -3.46289062 18.2109375 C-4.30216122 21.14247421 -5.150263 24.07147996 -6 27 C1.59 27 9.18 27 17 27 C15.54649394 29.90701213 14.34217154 32.03438747 12.41796875 34.546875 C11.90427734 35.21928223 11.39058594 35.89168945 10.86132812 36.58447266 C10.30896484 37.29909668 9.75660156 38.0137207 9.1875 38.75 C8.61580078 39.49427246 8.04410156 40.23854492 7.45507812 41.00537109 C2.87353509 46.94009665 -1.82130262 52.77810068 -6.59692383 58.55761719 C-9.91646822 62.59050033 -13.00641342 66.71873095 -16 71 C-17.26567046 66.84639774 -16.37686921 63.75554587 -15.1875 59.6875 C-14.91969727 58.7294043 -14.91969727 58.7294043 -14.64648438 57.75195312 C-14.10760107 55.8318166 -13.55382448 53.91588046 -13 52 C-12.34 49.69 -11.68 47.38 -11 45 C-18.92 45 -26.84 45 -35 45 C-30.50878274 38.26317411 -30.50878274 38.26317411 -28.22265625 35.51171875 C-27.71541016 34.89603027 -27.20816406 34.2803418 -26.68554688 33.64599609 C-26.14994141 32.99969238 -25.61433594 32.35338867 -25.0625 31.6875 C-19.69498614 25.15333579 -14.49964432 18.50749572 -9.40258789 11.76049805 C-6.36633065 7.74887289 -3.25270296 3.83866783 0 0 Z " fill="#0C0C0A" transform="translate(101,120)"/>
<path d="M0 0 C1.39456867 0.00574201 2.78910972 0.01875397 4.18359375 0.03515625 C6.63796875 0.05578125 9.09234375 0.07640625 11.62109375 0.09765625 C11.62109375 5.70765625 11.62109375 11.31765625 11.62109375 17.09765625 C6.34109375 17.09765625 1.06109375 17.09765625 -4.37890625 17.09765625 C-4.39953125 14.47828125 -4.42015625 11.85890625 -4.44140625 9.16015625 C-4.45051025 8.33394775 -4.45961426 7.50773926 -4.46899414 6.65649414 C-4.4761457 4.80331866 -4.42919145 2.95016317 -4.37890625 1.09765625 C-3.37890625 0.09765625 -3.37890625 0.09765625 0 0 Z " fill="#48A7C2" transform="translate(172.37890625,90.90234375)"/>
<path d="M0 0 C1 2 1 2 0.0625 5.125 C-0.288125 6.07375 -0.63875 7.0225 -1 8 C-1.99 8 -2.98 8 -4 8 C-4.99 8.66 -5.98 9.32 -7 10 C-5.33248852 6.05860922 -2.77289351 3.2107188 0 0 Z " fill="#5A5A50" transform="translate(101,120)"/>
</svg>
