<?xml version="1.0" encoding="UTF-8"?>
<svg version="1.1" xmlns="http://www.w3.org/2000/svg" width="272" height="272">
<path d="M0 0 C89.76 0 179.52 0 272 0 C272 89.76 272 179.52 272 272 C182.24 272 92.48 272 0 272 C0 182.24 0 92.48 0 0 Z " fill="#000000" transform="translate(0,0)"/>
<path d="M0 0 C15.51 0 31.02 0 47 0 C47 0.99 47 1.98 47 3 C53.31268603 3.37552165 53.31268603 3.37552165 59 1 C59.33 1.99 59.66 2.98 60 4 C60.9590625 4.4021875 60.9590625 4.4021875 61.9375 4.8125 C64 6 64 6 65.25 9.125 C65.4975 10.07375 65.745 11.0225 66 12 C66.78246094 12.06058594 67.56492188 12.12117187 68.37109375 12.18359375 C69.38300781 12.26738281 70.39492187 12.35117188 71.4375 12.4375 C72.95150391 12.55931641 72.95150391 12.55931641 74.49609375 12.68359375 C77 13 77 13 78 14 C80.81607168 14.03164125 83.61901289 13.93158367 86.43359375 13.83984375 C89 14 89 14 91 16 C91.265625 18.3125 91.265625 18.3125 91.25 21 C91.25773437 22.3303125 91.25773437 22.3303125 91.265625 23.6875 C91 26 91 26 89 28 C86.73615381 28.06118503 84.54489703 27.86830243 82.2890625 27.6796875 C79.82171352 27.75780186 79.82171352 27.75780186 78.41455078 29.98193359 C74.83479463 32.97387135 71.61271812 32.60268212 67.078125 32.609375 C66.21813904 32.62591125 65.35815308 32.64244751 64.47210693 32.65948486 C61.73133212 32.70798368 58.9911122 32.72933956 56.25 32.75 C54.38929497 32.77815817 52.52861581 32.80808539 50.66796875 32.83984375 C46.11202485 32.91374297 41.55638933 32.96330595 37 33 C37.21293701 33.59820557 37.42587402 34.19641113 37.64526367 34.81274414 C37.92088135 35.60801514 38.19649902 36.40328613 38.48046875 37.22265625 C38.75528076 38.00648682 39.03009277 38.79031738 39.31323242 39.59790039 C40.35566876 43.24401881 40.33120447 46.22426902 40 50 C38 52 38 52 36.125 52.265625 C35.42375 52.26046875 34.7225 52.2553125 34 52.25 C33.29875 52.25515625 32.5975 52.2603125 31.875 52.265625 C30 52 30 52 28 50 C27.62109375 47.50390625 27.62109375 47.50390625 27.4375 44.5625 C27.23248694 41.42036099 27.00035227 39.00105681 26 36 C25.01 36 24.02 36 23 36 C23.0611499 36.84763916 23.0611499 36.84763916 23.12353516 37.71240234 C23.30161821 40.26597672 23.4634976 42.8203257 23.625 45.375 C23.72167969 46.70917969 23.72167969 46.70917969 23.8203125 48.0703125 C23.871875 48.92109375 23.9234375 49.771875 23.9765625 50.6484375 C24.02893066 51.43395996 24.08129883 52.21948242 24.13525391 53.02880859 C24 55 24 55 22 57 C18.36565322 56.89310745 14.80219831 56.47892277 11.1875 56.09375 C10.135625 56.0628125 9.08375 56.031875 8 56 C7.01 56.99 7.01 56.99 6 58 C2.04155547 58.50905296 -1.95004503 58.41674402 -5.9375 58.4375 C-7.04802734 58.47037109 -8.15855469 58.50324219 -9.30273438 58.53710938 C-10.36685547 58.54419922 -11.43097656 58.55128906 -12.52734375 58.55859375 C-13.99288696 58.57877563 -13.99288696 58.57877563 -15.48803711 58.59936523 C-18 58 -18 58 -19.84204102 55.46508789 C-20.41523071 54.24486938 -20.41523071 54.24486938 -21 53 C-31.35285428 52.17661051 -31.35285428 52.17661051 -40.359375 56.08203125 C-41.86638399 58.67268845 -42.97788079 61.18596468 -44 64 C-44.598125 65.093125 -45.19625 66.18625 -45.8125 67.3125 C-46.95572696 69.89980312 -47.58955039 72.20894263 -48 75 C-54.30214697 74.66830805 -58.85216936 71.32676012 -64 68 C-62.64069974 65.12751643 -61.07861671 62.59545597 -59.25 60 C-53.79804088 51.91681976 -53.79804088 51.91681976 -50 43 C-50.58086608 40.74254318 -51.44378203 39.53707687 -52.8984375 37.734375 C-54.95397034 34.49800415 -54.30181601 30.69724609 -54 27 C-54.10957031 27.75925781 -54.21914062 28.51851562 -54.33203125 29.30078125 C-54.56986328 30.79158203 -54.56986328 30.79158203 -54.8125 32.3125 C-54.96332031 33.29863281 -55.11414063 34.28476563 -55.26953125 35.30078125 C-56.04721528 38.17446928 -56.55603962 39.33081494 -59 41 C-60.32 41 -61.64 41 -63 41 C-63 40.34 -63 39.68 -63 39 C-63.66 39 -64.32 39 -65 39 C-65 39.66 -65 40.32 -65 41 C-66.71240234 42.49633789 -66.71240234 42.49633789 -69.0859375 44.22265625 C-69.93414062 44.84333984 -70.78234375 45.46402344 -71.65625 46.10351562 C-72.5534375 46.74998047 -73.450625 47.39644531 -74.375 48.0625 C-75.26445313 48.71283203 -76.15390625 49.36316406 -77.0703125 50.03320312 C-83.88494938 54.99446528 -87.94634923 56.21454439 -96.32226562 56.60546875 C-99.96489454 56.46639287 -99.96489454 56.46639287 -103 58 C-104.51928038 58.07179964 -106.04167482 58.08392007 -107.5625 58.0625 C-108.38878906 58.05347656 -109.21507812 58.04445312 -110.06640625 58.03515625 C-110.70449219 58.02355469 -111.34257813 58.01195312 -112 58 C-113.85123268 53.28827274 -114.29431494 49.05334126 -114.265625 44.046875 C-114.26753845 43.3054425 -114.2694519 42.56401001 -114.27142334 41.80010986 C-114.27277707 40.24368955 -114.2691377 38.68725763 -114.26074219 37.13085938 C-114.24996948 34.74323486 -114.26069578 32.35635229 -114.2734375 29.96875 C-114.27211695 28.45312334 -114.26955674 26.93749714 -114.265625 25.421875 C-114.27169769 24.3500296 -114.27169769 24.3500296 -114.27789307 23.25653076 C-114.2299656 18.2299656 -114.2299656 18.2299656 -112 16 C-110.125 15.76953125 -110.125 15.76953125 -108 15.8125 C-106.948125 15.82216797 -106.948125 15.82216797 -105.875 15.83203125 C-104 16 -104 16 -102 17 C-100.43997036 17.12845919 -98.87487543 17.19778568 -97.31005859 17.23706055 C-95.84746109 17.27666145 -95.84746109 17.27666145 -94.35531616 17.31706238 C-92.76791122 17.35154228 -92.76791122 17.35154228 -91.1484375 17.38671875 C-90.06043854 17.41224319 -88.97243958 17.43776764 -87.85147095 17.46406555 C-85.54312757 17.51615465 -83.2347226 17.5655717 -80.92626953 17.61254883 C-77.41011607 17.68675886 -73.89464433 17.77755666 -70.37890625 17.86914062 C-68.13543862 17.91769207 -65.89194922 17.96524962 -63.6484375 18.01171875 C-62.60231293 18.04077805 -61.55618835 18.06983734 -60.47836304 18.09977722 C-54.55624199 18.20073031 -49.68350159 17.64893627 -44 16 C-42.36024071 15.7461271 -40.71400882 15.52775086 -39.0625 15.3671875 C-37.81533203 15.24150391 -37.81533203 15.24150391 -36.54296875 15.11328125 C-35.70378906 15.03464844 -34.86460938 14.95601562 -34 14.875 C-33.12988281 14.78863281 -32.25976562 14.70226562 -31.36328125 14.61328125 C-29.24270501 14.40355393 -27.12141921 14.20102158 -25 14 C-25 13.34 -25 12.68 -25 12 C-26.32 11.34 -27.64 10.68 -29 10 C-29 8 -29 8 -27.8737793 6.40698242 C-25.24341517 4.43189598 -23.28660473 4.56796597 -20.01953125 4.48828125 C-18.85615234 4.45283203 -17.69277344 4.41738281 -16.49414062 4.38085938 C-15.27919922 4.35830078 -14.06425781 4.33574219 -12.8125 4.3125 C-10.97268555 4.26125977 -10.97268555 4.26125977 -9.09570312 4.20898438 C-6.06389322 4.1264059 -3.03237621 4.05728631 0 4 C0 2.68 0 1.36 0 0 Z " fill="#47A7C2" transform="translate(147,139)"/>
<path d="M0 0 C5.28 0 10.56 0 16 0 C16 1.32 16 2.64 16 4 C24.25 4 32.5 4 41 4 C41 17.2 41 30.4 41 44 C32.75 44 24.5 44 16 44 C16 45.32 16 46.64 16 48 C10.72 48 5.44 48 0 48 C0 32.16 0 16.32 0 0 Z " fill="#FEFEDE" transform="translate(71,60)"/>
<path d="M0 0 C3.96 -0.103125 7.92 -0.20625 12 -0.3125 C13.84851563 -0.38078003 13.84851563 -0.38078003 15.734375 -0.45043945 C22.97753321 -0.54133077 27.34578509 0.45579297 33 5 C33.825 5.515625 34.65 6.03125 35.5 6.5625 C35.995 7.036875 36.49 7.51125 37 8 C37 9.32 37 10.64 37 12 C37.66 12 38.32 12 39 12 C39.91768641 26.51983831 39.91768641 26.51983831 35.4296875 32.453125 C31.72724175 36.45904991 27.80437206 39.7683778 22.25097656 40.22705078 C21.22456055 40.21657715 20.19814453 40.20610352 19.140625 40.1953125 C18.13547852 40.19031738 17.13033203 40.18532227 16.09472656 40.18017578 C14.19158691 40.15286377 14.19158691 40.15286377 12.25 40.125 C8.2075 40.08375 4.165 40.0425 0 40 C0 26.8 0 13.6 0 0 Z " fill="#FDFDDD" transform="translate(160,64)"/>
<path d="M0 0 C0.66 0 1.32 0 2 0 C1.7168444 2.08450717 1.42314331 4.16758367 1.125 6.25 C0.96257812 7.41015625 0.80015625 8.5703125 0.6328125 9.765625 C0 13 0 13 -2 17 C2.95 17 7.9 17 13 17 C10.88769971 20.52050049 8.99567697 23.38105355 6.4375 26.5 C4.01400537 29.47653701 1.62942973 32.47041063 -0.67578125 35.5390625 C-1.12429443 36.13396484 -1.57280762 36.72886719 -2.03491211 37.34179688 C-2.91962535 38.51905056 -3.79946049 39.69998801 -4.67407227 40.88476562 C-5.73624201 42.29280241 -6.86300238 43.65166453 -8 45 C-8.66 45 -9.32 45 -10 45 C-9.71767279 42.89455987 -9.4238102 40.79066411 -9.125 38.6875 C-8.88136719 36.92986328 -8.88136719 36.92986328 -8.6328125 35.13671875 C-8 32 -8 32 -6 29 C-10.95 29 -15.9 29 -21 29 C-19.46731966 25.93463931 -18.30016908 23.96652738 -16.171875 21.42578125 C-15.34683472 20.42998047 -15.34683472 20.42998047 -14.50512695 19.4140625 C-13.92593506 18.72054687 -13.34674316 18.02703125 -12.75 17.3125 C-8.51364689 12.19146764 -4.4890904 7.1119271 -1.05078125 1.40625 C-0.70402344 0.9421875 -0.35726562 0.478125 0 0 Z " fill="#F9F9D9" transform="translate(140,61)"/>
<path d="M0 0 C9.24 0 18.48 0 28 0 C25.87598962 4.24802077 23.60847792 6.09065494 19.875 8.75 C19.03001953 9.36681641 19.03001953 9.36681641 18.16796875 9.99609375 C16.78398366 11.00476085 15.39269459 12.00339286 14 13 C10.5442173 11.44166808 7.72724126 9.39989555 4.75 7.0625 C3.85796875 6.37285156 2.9659375 5.68320313 2.046875 4.97265625 C1.37140625 4.32167969 0.6959375 3.67070312 0 3 C0 2.01 0 1.02 0 0 Z " fill="#000001" transform="translate(48,176)"/>
<path d="M0 0 C0.99 0.495 0.99 0.495 2 1 C4.17674783 1.15469367 6.3578348 1.25002106 8.5390625 1.31640625 C9.84101563 1.35830078 11.14296875 1.40019531 12.484375 1.44335938 C13.86458045 1.48317299 15.24478883 1.52288522 16.625 1.5625 C18.01303415 1.60569407 19.40105528 1.64930865 20.7890625 1.69335938 C24.19260256 1.79972 27.59621778 1.90174714 31 2 C31 2.66 31 3.32 31 4 C21.1 4 11.2 4 1 4 C0.67 2.68 0.34 1.36 0 0 Z " fill="#131E21" transform="translate(130,186)"/>
<path d="M0 0 C2.2109885 0.42793326 3.98119242 0.99059621 6 2 C6.042721 3.66611905 6.04063832 5.33382885 6 7 C5 8 5 8 1.9375 8.0625 C0.968125 8.041875 -0.00125 8.02125 -1 8 C-1.04241723 5.66705225 -1.04092937 3.33297433 -1 1 C-0.67 0.67 -0.34 0.34 0 0 Z " fill="#040607" transform="translate(119,181)"/>
<path d="M0 0 C0.99 0 1.98 0 3 0 C3.66 2.64 4.32 5.28 5 8 C2.69 8 0.38 8 -2 8 C-2.125 5.125 -2.125 5.125 -2 2 C-1.34 1.34 -0.68 0.68 0 0 Z " fill="#010101" transform="translate(112,181)"/>
<path d="M0 0 C3.24271506 0.5590888 4.93057424 1.4132178 7 4 C7 4.66 7 5.32 7 6 C5.02 6 3.04 6 1 6 C0.67 4.02 0.34 2.04 0 0 Z " fill="#0A0F10" transform="translate(45,186)"/>
<path d="M0 0 C0.99 0.495 0.99 0.495 2 1 C3.5195764 1.15123831 5.04472502 1.24881693 6.5703125 1.31640625 C7.91416016 1.37924805 7.91416016 1.37924805 9.28515625 1.44335938 C10.22230469 1.48267578 11.15945312 1.52199219 12.125 1.5625 C13.54232422 1.62727539 13.54232422 1.62727539 14.98828125 1.69335938 C17.32537092 1.79959072 19.6625683 1.90163176 22 2 C22 2.33 22 2.66 22 3 C11.605 3.495 11.605 3.495 1 4 C0.67 2.68 0.34 1.36 0 0 Z " fill="#32555F" transform="translate(130,186)"/>
<path d="M0 0 C0.99 0 1.98 0 3 0 C3 2.64 3 5.28 3 8 C0.69 8 -1.62 8 -4 8 C-4 7.67 -4 7.34 -4 7 C-2.35 6.67 -0.7 6.34 1 6 C0.67 5.67 0.34 5.34 0 5 C-0.04063832 3.33382885 -0.042721 1.66611905 0 0 Z " fill="#428294" transform="translate(115,182)"/>
</svg>
