<?xml version="1.0" encoding="UTF-8"?>
<svg version="1.1" xmlns="http://www.w3.org/2000/svg" width="256" height="256">
<path d="M0 0 C84.48 0 168.96 0 256 0 C256 84.48 256 168.96 256 256 C171.52 256 87.04 256 0 256 C0 171.52 0 87.04 0 0 Z " fill="#010101" transform="translate(0,0)"/>
<path d="M0 0 C0.92619141 0.29003906 0.92619141 0.29003906 1.87109375 0.5859375 C7.54348868 2.32996151 13.19193035 3.78217894 19 5 C16.40963872 7.59036128 14.12829274 8.02725731 10.625 9.0625 C9.48289063 9.40410156 8.34078125 9.74570313 7.1640625 10.09765625 C6.11992187 10.39542969 5.07578125 10.69320312 4 11 C2.84757812 11.35191406 2.84757812 11.35191406 1.671875 11.7109375 C1.12015625 11.80632812 0.5684375 11.90171875 0 12 C-0.45375 11.525625 -0.9075 11.05125 -1.375 10.5625 C-3.0085302 8.65321269 -3.0085302 8.65321269 -6.1875 8.8125 C-7.115625 8.874375 -8.04375 8.93625 -9 9 C-9.33 9.66 -9.66 10.32 -10 11 C-9.01 11.33 -8.02 11.66 -7 12 C-7 41.7 -7 71.4 -7 102 C-24.49 102 -41.98 102 -60 102 C-60.36989235 79.61928439 -60.36989235 79.61928439 -60.50195312 70.10546875 C-60.59227803 63.60448265 -60.68594991 57.10366191 -60.79907227 50.60302734 C-60.89003216 45.36419525 -60.96638218 40.1253382 -61.03244972 34.8861351 C-61.06029871 32.88370653 -61.09348163 30.88134504 -61.13199425 28.87909317 C-61.18489319 26.08230638 -61.21910602 23.28588531 -61.2487793 20.48876953 C-61.27898415 19.23720566 -61.27898415 19.23720566 -61.30979919 17.96035767 C-61.32279968 15.65725708 -61.32279968 15.65725708 -61 12 C-60.01 11.34 -59.02 10.68 -58 10 C-58 9.34 -58 8.68 -58 8 C-59.20955589 8.00138269 -59.20955589 8.00138269 -60.44354725 8.00279331 C-80.04747497 8.02485977 -99.65140023 8.04141705 -119.25533772 8.05181217 C-128.73557798 8.05697255 -138.21580997 8.06401035 -147.69604492 8.07543945 C-155.95721685 8.08539416 -164.21838279 8.09185531 -172.47956055 8.09408849 C-176.8553979 8.09539426 -181.23121809 8.09847168 -185.60704994 8.10573006 C-189.72325648 8.11250266 -193.83943875 8.11461442 -197.95565033 8.11310768 C-199.46858286 8.11338345 -200.98151617 8.11538124 -202.49444389 8.11920547 C-204.55596246 8.12416206 -206.61738872 8.12299099 -208.6789093 8.12025452 C-209.83391591 8.12117631 -210.98892252 8.1220981 -212.17892933 8.12304783 C-215 8 -215 8 -218 7 C-218 6.34 -218 5.68 -218 5 C-215.23075381 3.61537691 -212.97695231 3.85930988 -209.87660217 3.84178162 C-208.56763474 3.8319928 -207.2586673 3.82220398 -205.91003418 3.81211853 C-204.44921912 3.80621223 -202.98840367 3.80040192 -201.52758789 3.79467773 C-199.99429562 3.78509795 -198.46100598 3.77508781 -196.92771912 3.76467896 C-192.73861349 3.7375154 -188.54949663 3.71653751 -184.36035085 3.69667697 C-179.92921451 3.67469811 -175.49811126 3.64732598 -171.06700134 3.62062073 C-163.57210825 3.57622414 -156.07720244 3.53552842 -148.58227539 3.49731445 C-139.13114957 3.44911232 -129.68006606 3.39523361 -120.22898293 3.33934593 C-80.48582211 3.10434596 -40.74398436 2.91718145 -1 3 C-0.67 2.01 -0.34 1.02 0 0 Z " fill="#2288A7" transform="translate(226,145)"/>
<path d="M0 0 C1.5136457 4.5409371 -0.35390714 7.64042593 -2 12 C-2.33 12.93585937 -2.66 13.87171875 -3 14.8359375 C-8.88096473 30.39599003 -20.82687389 41.21956335 -32.4375 52.625 C-33.92192757 54.09434159 -35.40565662 55.56438922 -36.88867188 57.03515625 C-40.12114049 60.23842015 -43.36008081 63.43496085 -46.60520935 66.62539673 C-47.74164073 67.74538007 -48.87176266 68.87176266 -50 70 C-51.31886772 68.90344712 -52.62990057 67.79746577 -53.9375 66.6875 C-54.66839844 66.07261719 -55.39929688 65.45773438 -56.15234375 64.82421875 C-58 63 -58 63 -59 60 C-57.83406067 58.23059082 -57.83406067 58.23059082 -56.03833008 56.29882812 C-55.38724274 55.59250244 -54.7361554 54.88617676 -54.06533813 54.15844727 C-53.38377655 53.44615967 -52.70221497 52.73387207 -52 52 C-51.38683929 51.35796631 -50.77367859 50.71593262 -50.14193726 50.05444336 C-48.23968349 48.09254231 -46.31738566 46.15268429 -44.38671875 44.21875 C-43.69109329 43.51979614 -42.99546783 42.82084229 -42.27876282 42.10070801 C-40.82378308 40.64070796 -39.36748513 39.18202046 -37.90991211 37.72460938 C-35.67077889 35.48326235 -33.43979722 33.23399986 -31.20898438 30.984375 C-29.78955107 29.56201227 -28.36964637 28.14011977 -26.94921875 26.71875 C-26.28153976 26.0438855 -25.61386078 25.369021 -24.9259491 24.67370605 C-24.30802994 24.05886353 -23.69011078 23.444021 -23.0534668 22.81054688 C-22.51054489 22.26619995 -21.96762299 21.72185303 -21.4082489 21.16101074 C-20 20 -20 20 -18 20 C-17.74621582 19.42024414 -17.49243164 18.84048828 -17.23095703 18.24316406 C-15.86241385 15.74927777 -14.33002231 14.10256164 -12.3046875 12.109375 C-11.58925781 11.40039062 -10.87382812 10.69140625 -10.13671875 9.9609375 C-9.39035156 9.23132812 -8.64398438 8.50171875 -7.875 7.75 C-7.12089844 7.00492188 -6.36679688 6.25984375 -5.58984375 5.4921875 C-3.73099228 3.6568658 -1.86762995 1.8263809 0 0 Z " fill="#FEFEDF" transform="translate(162,25)"/>
<path d="M0 0 C3.62462885 0.42597134 5.2926498 1.96337959 7.75 4.5625 C8.36359375 5.20316406 8.9771875 5.84382813 9.609375 6.50390625 C10.06828125 6.99761719 10.5271875 7.49132812 11 8 C9.27845212 11.76488042 7.00765886 14.15063897 4 17 C8.69766975 22.66129431 13.74723372 27.85228904 19 33 C17.25 37.8671875 17.25 37.8671875 15 39.0625 C14.34 39.371875 13.68 39.68125 13 40 C11.73195434 42.0335948 11.73195434 42.0335948 11 44 C9.68 43.34 8.36 42.68 7 42 C7 41.34 7 40.68 7 40 C5.68 39.34 4.36 38.68 3 38 C3 37.34 3 36.68 3 36 C1.515 35.505 1.515 35.505 0 35 C0 34.34 0 33.68 0 33 C-0.66 33 -1.32 33 -2 33 C-2 32.34 -2 31.68 -2 31 C-4.64738916 29.5393715 -5.89448334 29 -9 29 C-9.639375 29.804375 -10.27875 30.60875 -10.9375 31.4375 C-13 34 -13 34 -14.9375 35.125 C-17 35 -17 35 -19.75 32.6875 C-22 30 -22 30 -22 28 C-22.99 27.67 -23.98 27.34 -25 27 C-23.56698626 23.71990961 -21.80531117 21.57023114 -19.26171875 19.06640625 C-18.52373047 18.33486328 -17.78574219 17.60332031 -17.02539062 16.84960938 C-16.25388672 16.09486328 -15.48238281 15.34011719 -14.6875 14.5625 C-13.92759766 13.81162109 -13.16769531 13.06074219 -12.38476562 12.28710938 C-10.91520289 10.83542142 -9.44376218 9.38563147 -7.97021484 7.93798828 C-5.63291045 5.63891489 -3.31377322 3.32272399 -1 1 C-0.67 0.67 -0.34 0.34 0 0 Z " fill="#FEFEDF" transform="translate(166,85)"/>
<path d="M0 0 C4.72704814 3.08705185 8.21394111 6.2155158 11.82421875 10.53125 C16.59892385 15.94886871 21.86105593 20.93060555 27 26 C26.505 27.485 26.505 27.485 26 29 C25.34 29 24.68 29 24 29 C23.731875 29.598125 23.46375 30.19625 23.1875 30.8125 C22.01506533 32.97224808 20.80630718 34.35790256 19 36 C14.56541027 34.6062718 12.12621626 32.39417765 9 29 C7.87105124 29.93274109 6.74699124 30.87140122 5.625 31.8125 C4.68527344 32.59560547 4.68527344 32.59560547 3.7265625 33.39453125 C1.7778952 35.08225739 1.7778952 35.08225739 0 38 C-0.66 38 -1.32 38 -2 38 C-2.33 38.99 -2.66 39.98 -3 41 C-4.62332967 42.38576923 -6.28724465 43.72641268 -8 45 C-9.3218362 43.92807816 -10.63217927 42.84197305 -11.9375 41.75 C-12.66839844 41.14671875 -13.39929688 40.5434375 -14.15234375 39.921875 C-16.12610652 37.86882789 -16.85139702 36.83488762 -17 34 C-14.6875 31.25 -14.6875 31.25 -12 29 C-11.34 29 -10.68 29 -10 29 C-9.60167969 28.12601563 -9.60167969 28.12601563 -9.1953125 27.234375 C-7.96697004 24.93825772 -6.59685061 23.19643982 -4.875 21.25 C-4.33617188 20.63640625 -3.79734375 20.0228125 -3.2421875 19.390625 C-2.83226563 18.93171875 -2.42234375 18.4728125 -2 18 C-3.175625 16.88625 -3.175625 16.88625 -4.375 15.75 C-7 13 -7 13 -9 9 C-6.03 6.03 -3.06 3.06 0 0 Z " fill="#FEFEDF" transform="translate(86,84)"/>
<path d="M0 0 C51.81 0 103.62 0 157 0 C157.33 0.99 157.66 1.98 158 3 C157.01 3.66 156.02 4.32 155 5 C154.7138402 7.87084495 154.62187814 10.52504289 154.65942383 13.39697266 C154.65898575 14.26533249 154.65854767 15.13369232 154.65809631 16.02836609 C154.66019133 18.90715794 154.6835558 21.78537202 154.70703125 24.6640625 C154.71262467 26.6566028 154.71689597 28.64914722 154.71989441 30.64169312 C154.73136316 35.89269347 154.76084779 41.14344592 154.79400635 46.39434814 C154.82466353 51.74984381 154.83839043 57.10537943 154.85351562 62.4609375 C154.88571555 72.97406741 154.93693638 83.48701311 155 94 C152.3942555 91.3942555 152.76403148 89.59273444 152.7511425 86.04443169 C152.76193683 84.79049708 152.76193683 84.79049708 152.77294922 83.51123047 C152.77270815 82.61889269 152.77246708 81.72655491 152.7722187 80.80717659 C152.77371493 77.91041314 152.78896176 75.01390508 152.8046875 72.1171875 C152.80762698 70.33211389 152.80966801 68.54703857 152.81079102 66.76196289 C152.82128939 60.13294902 152.84921166 53.50397202 152.875 46.875 C152.91625 32.06625 152.9575 17.2575 153 2 C102.84 2 52.68 2 1 2 C0.67 1.34 0.34 0.68 0 0 Z " fill="#05171D" transform="translate(11,153)"/>
<path d="M0 0 C5.78313693 4.8032165 11.20607993 9.92373871 16.55517578 15.20507812 C17.52748263 16.16062673 18.50514744 17.11075057 19.48779297 18.05566406 C20.92035975 19.43376962 22.33550098 20.8299183 23.75 22.2265625 C24.59046875 23.04721191 25.4309375 23.86786133 26.296875 24.71337891 C28 27 28 27 27.765625 29.29833984 C27.51296875 29.8598877 27.2603125 30.42143555 27 31 C26.34 31 25.68 31 25 31 C24.7525 31.598125 24.505 32.19625 24.25 32.8125 C22.83153093 35.29482087 21.30735262 36.36328035 19 38 C9.22290555 27.64437925 0.83961525 14.55333094 0 0 Z " fill="#FEFEDF" transform="translate(91,25)"/>
<path d="M0 0 C3.32759923 1.55194754 5.48580485 3.30621949 8 6 C6.60506348 10.43843439 4.48101799 12.9434964 1 16 C0.01 16.33 -0.98 16.66 -2 17 C-3.5 15.625 -3.5 15.625 -5 14 C-5 13.34 -5 12.68 -5 12 C-5.66 12 -6.32 12 -7 12 C-7.74609375 10.265625 -7.74609375 10.265625 -8 8 C-6.34765625 5.859375 -6.34765625 5.859375 -4.0625 3.75 C-3.31097656 3.04359375 -2.55945313 2.3371875 -1.78515625 1.609375 C-1.19605469 1.07828125 -0.60695312 0.5471875 0 0 Z " fill="#FEFEDF" transform="translate(143,78)"/>
<path d="M0 0 C14.19 0 28.38 0 43 0 C43 0.99 43 1.98 43 3 C28.48 3 13.96 3 -1 3 C-0.67 2.01 -0.34 1.02 0 0 Z " fill="#082229" transform="translate(171,153)"/>
<path d="M0 0 C2.875 -0.1875 2.875 -0.1875 6 0 C6.66 0.99 7.32 1.98 8 3 C6.35 3 4.7 3 3 3 C2.67 12.57 2.34 22.14 2 32 C1.67 32 1.34 32 1 32 C1 22.76 1 13.52 1 4 C0.34 3.67 -0.32 3.34 -1 3 C-0.67 2.01 -0.34 1.02 0 0 Z " fill="#0A2932" transform="translate(217,153)"/>
<path d="M0 0 C0.99 0.33 1.98 0.66 3 1 C2.55635701 5.88007285 1.52243144 7.69772053 -2 11 C-2.7872678 13.1381966 -2.7872678 13.1381966 -3 15 C-3.99 13.68 -4.98 12.36 -6 11 C-3.79020692 8.18060883 -1.59937954 5.46941056 1 3 C0.67 2.01 0.34 1.02 0 0 Z " fill="#32322B" transform="translate(175,91)"/>
<path d="M0 0 C1.32 0.66 2.64 1.32 4 2 C3 4 3 4 1.1875 4.875 C-1.38820998 6.19965085 -3.03454804 7.89415861 -5 10 C-5.99 9.67 -6.98 9.34 -8 9 C-6.8553125 7.88625 -6.8553125 7.88625 -5.6875 6.75 C-3.5606298 4.5736677 -1.7440044 2.47832204 0 0 Z " fill="#34342E" transform="translate(94,112)"/>
<path d="M0 0 C2.875 -0.1875 2.875 -0.1875 6 0 C6.66 0.99 7.32 1.98 8 3 C6.35 3 4.7 3 3 3 C2.67 3.99 2.34 4.98 2 6 C1.01 5.01 0.02 4.02 -1 3 C-0.67 2.01 -0.34 1.02 0 0 Z " fill="#082128" transform="translate(217,153)"/>
</svg>
