<?xml version="1.0" encoding="UTF-8"?>
<svg version="1.1" xmlns="http://www.w3.org/2000/svg" width="250" height="250">
<path d="M0 0 C15.7072883 -0.11678118 31.4144595 -0.20496233 47.12207413 -0.25906086 C54.41535195 -0.28484704 61.70836011 -0.32000489 69.00146484 -0.37719727 C75.35786453 -0.42702027 81.71406893 -0.45928803 88.07065845 -0.47044247 C91.43680923 -0.47696333 94.80240133 -0.4922961 98.16837311 -0.52865028 C101.92541471 -0.56481685 105.68128959 -0.56995023 109.43847656 -0.56762695 C110.55553482 -0.58560333 111.67259308 -0.60357971 112.82350159 -0.62210083 C120.34618196 -0.57158771 120.34618196 -0.57158771 123.68707275 2.34912109 C125.14070633 5.28409452 125.5381284 7.77029491 126 11 C127.26005799 13.69742019 127.26005799 13.69742019 128.90625 16.29296875 C129.48503906 17.25267578 130.06382812 18.21238281 130.66015625 19.20117188 C131.26730469 20.18666016 131.87445313 21.17214844 132.5 22.1875 C133.70030607 24.15870328 134.89833148 26.13129764 136.09375 28.10546875 C136.62677734 28.97324951 137.15980469 29.84103027 137.70898438 30.73510742 C139 33 139 33 140 36 C140.515625 36.515625 141.03125 37.03125 141.5625 37.5625 C142.036875 38.036875 142.51125 38.51125 143 39 C143 39.66 143 40.32 143 41 C144.1446875 42.1446875 144.1446875 42.1446875 145.3125 43.3125 C148.3829996 46.3829996 150.64517216 49.0133348 151.4206543 53.35522461 C152.0517295 56.23615073 153.05867115 58.26047301 154.51953125 60.81640625 C155.30312012 62.19638794 155.30312012 62.19638794 156.10253906 63.60424805 C156.66682617 64.58047119 157.23111328 65.55669434 157.8125 66.5625 C158.38838867 67.57159424 158.96427734 68.58068848 159.55761719 69.62036133 C164.01306721 77.39066131 168.5969921 85.08274801 173.30395508 92.70336914 C174.01201294 93.86147095 174.01201294 93.86147095 174.734375 95.04296875 C175.14913086 95.71352295 175.56388672 96.38407715 175.99121094 97.07495117 C177.06993044 99.13344664 177.74009577 100.68492197 178 103 C177.20239258 105.06445312 177.20239258 105.06445312 175.89453125 107.28125 C175.41089111 108.11390381 174.92725098 108.94655762 174.42895508 109.80444336 C173.8955249 110.69397705 173.36209473 111.58351074 172.8125 112.5 C172.27455811 113.42111572 171.73661621 114.34223145 171.18237305 115.29125977 C168.36211228 120.10055946 165.47657804 124.86817232 162.5625 129.62109375 C162.01746826 130.51441406 161.47243652 131.40773437 160.91088867 132.328125 C159.86627759 134.03345619 158.81212088 135.7329865 157.74731445 137.42578125 C155.11298552 141.70828864 153.60015019 144.93531791 153 150 C151.87890625 152.30078125 151.87890625 152.30078125 150.5625 154.3125 C150.13066406 154.98925781 149.69882813 155.66601562 149.25390625 156.36328125 C148 158 148 158 146 159 C145.67 159.99 145.34 160.98 145 162 C143 164 143 164 141 165 C140.31583836 166.99408307 139.65206581 168.99519212 139 171 C138.02390425 172.86753776 136.99364556 174.70752142 135.91796875 176.51953125 C135.31533203 177.54240234 134.71269531 178.56527344 134.09179688 179.61914062 C133.46337891 180.67294922 132.83496094 181.72675781 132.1875 182.8125 C130.9509569 184.90183145 129.71526611 186.99166759 128.48046875 189.08203125 C127.93285889 190.00218018 127.38524902 190.9223291 126.82104492 191.87036133 C125.31189631 194.46397657 123.84093666 197.07140034 122.38618469 199.69560242 C121.93855428 200.50267482 121.49092386 201.30974722 121.02972889 202.14127636 C120.68991836 202.75465516 120.35010782 203.36803396 120 204 C104.2927117 204.11678118 88.5855405 204.20496233 72.87792587 204.25906086 C65.58464805 204.28484704 58.29163989 204.32000489 50.99853516 204.37719727 C44.64213547 204.42702027 38.28593107 204.45928803 31.92934155 204.47044247 C28.56319077 204.47696333 25.19759867 204.4922961 21.83162689 204.52865028 C18.07458529 204.56481685 14.31871041 204.56995023 10.56152344 204.56762695 C9.44446518 204.58560333 8.32740692 204.60357971 7.17649841 204.62210083 C-0.34618196 204.57158771 -0.34618196 204.57158771 -3.68707275 201.65087891 C-5.14070633 198.71590548 -5.5381284 196.22970509 -6 193 C-7.26005799 190.30257981 -7.26005799 190.30257981 -8.90625 187.70703125 C-9.48503906 186.74732422 -10.06382813 185.78761719 -10.66015625 184.79882812 C-11.26730469 183.81333984 -11.87445313 182.82785156 -12.5 181.8125 C-13.70030607 179.84129672 -14.89833148 177.86870236 -16.09375 175.89453125 C-16.62677734 175.02675049 -17.15980469 174.15896973 -17.70898438 173.26489258 C-19 171 -19 171 -20 168 C-20.515625 167.484375 -21.03125 166.96875 -21.5625 166.4375 C-22.036875 165.963125 -22.51125 165.48875 -23 165 C-23 164.34 -23 163.68 -23 163 C-23.763125 162.236875 -24.52625 161.47375 -25.3125 160.6875 C-28.3829996 157.6170004 -30.64517216 154.9866652 -31.4206543 150.64477539 C-32.0517295 147.76384927 -33.05867115 145.73952699 -34.51953125 143.18359375 C-35.30312012 141.80361206 -35.30312012 141.80361206 -36.10253906 140.39575195 C-36.66682617 139.41952881 -37.23111328 138.44330566 -37.8125 137.4375 C-38.38838867 136.42840576 -38.96427734 135.41931152 -39.55761719 134.37963867 C-44.01306721 126.60933869 -48.5969921 118.91725199 -53.30395508 111.29663086 C-54.01201294 110.13852905 -54.01201294 110.13852905 -54.734375 108.95703125 C-55.14913086 108.28647705 -55.56388672 107.61592285 -55.99121094 106.92504883 C-57.06139211 104.88284686 -57.71922961 103.29230171 -58 101 C-57.30322266 99.12475586 -57.30322266 99.12475586 -56.1640625 97.21484375 C-55.75929688 96.51939453 -55.35453125 95.82394531 -54.9375 95.10742188 C-54.504375 94.39134766 -54.07125 93.67527344 -53.625 92.9375 C-52.78174672 91.51035771 -51.9405168 90.08201745 -51.1015625 88.65234375 C-50.72338379 88.02320068 -50.34520508 87.39405762 -49.95556641 86.74584961 C-48.85184805 84.85236084 -48.85184805 84.85236084 -48 82 C-47.42636719 81.28714844 -46.85273437 80.57429688 -46.26171875 79.83984375 C-43.41792038 76.26913318 -41.13373866 72.48576827 -38.8125 68.5625 C-38.13670898 67.45551758 -38.13670898 67.45551758 -37.44726562 66.32617188 C-34.96564738 62.1405339 -33.62784061 58.88320471 -33 54 C-31.87890625 51.69921875 -31.87890625 51.69921875 -30.5625 49.6875 C-29.91474609 48.67236328 -29.91474609 48.67236328 -29.25390625 47.63671875 C-28 46 -28 46 -26 45 C-25.67 44.01 -25.34 43.02 -25 42 C-23 40 -23 40 -21 39 C-20.31583836 37.00591693 -19.65206581 35.00480788 -19 33 C-18.02390425 31.13246224 -16.99364556 29.29247858 -15.91796875 27.48046875 C-15.01401367 25.94616211 -15.01401367 25.94616211 -14.09179688 24.38085938 C-13.46337891 23.32705078 -12.83496094 22.27324219 -12.1875 21.1875 C-10.9509569 19.09816855 -9.71526611 17.00833241 -8.48046875 14.91796875 C-7.93285889 13.99781982 -7.38524902 13.0776709 -6.82104492 12.12963867 C-5.31189631 9.53602343 -3.84093666 6.92859966 -2.38618469 4.30439758 C-1.93855428 3.49732518 -1.49092386 2.69025278 -1.02972889 1.85872364 C-0.52001309 0.93865544 -0.52001309 0.93865544 0 0 Z M123 6 C124 8 124 8 124 8 Z M-4 196 C-3 198 -3 198 -3 198 Z " fill="#FDDD21" transform="translate(65,23)"/>
<path d="M0 0 C1.0209375 -0.00773437 2.041875 -0.01546875 3.09375 -0.0234375 C24.41014605 0.03066503 41.64836045 7.93395616 57.0625 22.5 C73.61514598 39.84659557 77.87852388 59.81768525 77.33886719 82.95214844 C76.6132339 101.71495201 66.6738251 119.04069296 53.25 131.71875 C35.19064193 146.95633337 15.54162147 151.51077342 -7.75 150.25 C-27.65112226 147.91102348 -44.98825875 137.55991217 -57.75 122.25 C-63.45277714 114.29665858 -68.1497482 105.7172151 -70.75 96.25 C-70.97300781 95.45207031 -71.19601563 94.65414062 -71.42578125 93.83203125 C-75.90787995 74.16567981 -72.61964693 53.52557398 -62.96484375 36.01171875 C-52.39286261 19.27455764 -37.46172396 8.24642119 -18.75 2.25 C-17.71230469 1.88261719 -16.67460938 1.51523437 -15.60546875 1.13671875 C-10.36603454 -0.06829803 -5.3576542 -0.03998249 0 0 Z " fill="#FCDD21" transform="translate(122.75,49.75)"/>
<path d="M0 0 C1.0209375 -0.00773437 2.041875 -0.01546875 3.09375 -0.0234375 C24.41014605 0.03066503 41.64836045 7.93395616 57.0625 22.5 C73.61514598 39.84659557 77.87852388 59.81768525 77.33886719 82.95214844 C76.6132339 101.71495201 66.6738251 119.04069296 53.25 131.71875 C35.19064193 146.95633337 15.54162147 151.51077342 -7.75 150.25 C-27.65112226 147.91102348 -44.98825875 137.55991217 -57.75 122.25 C-63.45277714 114.29665858 -68.1497482 105.7172151 -70.75 96.25 C-70.97300781 95.45207031 -71.19601563 94.65414062 -71.42578125 93.83203125 C-75.90787995 74.16567981 -72.61964693 53.52557398 -62.96484375 36.01171875 C-52.39286261 19.27455764 -37.46172396 8.24642119 -18.75 2.25 C-17.71230469 1.88261719 -16.67460938 1.51523437 -15.60546875 1.13671875 C-10.36603454 -0.06829803 -5.3576542 -0.03998249 0 0 Z M-44.6484375 31.046875 C-54.67715039 41.66551217 -60.75 54.70990204 -60.75 69.25 C-54.15 69.25 -47.55 69.25 -40.75 69.25 C-40.75 73.21 -40.75 77.17 -40.75 81.25 C-47.35 81.25 -53.95 81.25 -60.75 81.25 C-59.89722459 97.87912044 -52.1795424 113.03220029 -39.75 124.25 C-32.11217562 130.19677587 -24.04759463 134.48540549 -14.75 137.25 C-13.76 137.58 -12.77 137.91 -11.75 138.25 C-9.11 138.25 -6.47 138.25 -3.75 138.25 C-3.75 131.65 -3.75 125.05 -3.75 118.25 C0.21 118.25 4.17 118.25 8.25 118.25 C8.25 124.85 8.25 131.45 8.25 138.25 C23.92818018 137.63112447 37.45912061 130.48655755 48.859375 119.875 C53.14558988 115.16856798 56.19896922 109.80824357 59.25 104.25 C59.683125 103.49332031 60.11625 102.73664063 60.5625 101.95703125 C64.21619473 95.22724795 65.25 88.87456107 65.25 81.25 C58.65 81.25 52.05 81.25 45.25 81.25 C45.25 77.29 45.25 73.33 45.25 69.25 C51.85 69.25 58.45 69.25 65.25 69.25 C65.25 53.30798904 57.92036927 40.22270647 47.046875 28.7890625 C36.21790375 18.95829251 22.81950911 12.8251122 8.25 12.25 C8.25 18.85 8.25 25.45 8.25 32.25 C4.29 32.25 0.33 32.25 -3.75 32.25 C-3.75 25.65 -3.75 19.05 -3.75 12.25 C-20.24227804 12.25 -32.83864635 19.86888337 -44.6484375 31.046875 Z " fill="#2C2B28" transform="translate(122.75,49.75)"/>
<path d="M0 0 C0 18.48 0 36.96 0 56 C-9.08784204 52.97071932 -16.2720801 50.33172856 -21.26953125 41.84375 C-24.85021267 34.04975794 -25.64889554 25.90007472 -22.89453125 17.71484375 C-19.61853381 10.62709594 -15.93111313 5.11681008 -8.625 1.98046875 C-2.98202055 0 -2.98202055 0 0 0 Z " fill="#2A2928" transform="translate(121,97)"/>
<path d="M0 0 C10.87666971 3.62555657 16.5532627 6.89467583 22.375 16.625 C25.38619827 23.23432502 25.20785348 30.51294354 22.859375 37.29296875 C18.37301049 46.79697778 14.00261021 51.67175438 4.171875 55.3359375 C2 56 2 56 0 56 C0 37.52 0 19.04 0 0 Z " fill="#2C2A28" transform="translate(129,97)"/>
<path d="M0 0 C0 18.48 0 36.96 0 56 C-1.65 55.67 -3.3 55.34 -5 55 C-4.01 54.505 -4.01 54.505 -3 54 C-3 36.84 -3 19.68 -3 2 C-3.66 1.67 -4.32 1.34 -5 1 C-2 0 -2 0 0 0 Z " fill="#383525" transform="translate(121,97)"/>
<path d="M0 0 C39.6 0 79.2 0 120 0 C120 0.33 120 0.66 120 1 C80.4 1 40.8 1 0 1 C0 0.67 0 0.34 0 0 Z " fill="#FFDF21" transform="translate(65,228)"/>
<path d="M0 0 C39.6 0 79.2 0 120 0 C120 0.33 120 0.66 120 1 C80.4 1 40.8 1 0 1 C0 0.67 0 0.34 0 0 Z " fill="#FFDF21" transform="translate(65,21)"/>
<path d="M0 0 C0.99 0.33 1.98 0.66 3 1 C2.34 3.97 1.68 6.94 1 10 C-1 8 -1 8 -1.1875 5 C-1 2 -1 2 0 0 Z " fill="#383428" transform="translate(196,139)"/>
<path d="M0 0 C0.66 0 1.32 0 2 0 C0.92598892 2.91517292 0.22189824 4.77810176 -2 7 C-2.99 6.67 -3.98 6.34 -5 6 C-3.38405168 3.95880212 -1.7143618 1.95927063 0 0 Z " fill="#333228" transform="translate(68,75)"/>
<path d="M0 0 C0.99 0.495 0.99 0.495 2 1 C1.67 1.66 1.34 2.32 1 3 C0.67 2.01 0.34 1.02 0 0 Z " fill="#FFDF21" transform="translate(28,164)"/>
<path d="M0 0 C0 3 0 3 0 3 Z " fill="#FFDF21" transform="translate(221,164)"/>
<path d="M0 0 C0 3 0 3 0 3 Z " fill="#FFDF21" transform="translate(227,154)"/>
<path d="M0 0 C0.99 0.495 0.99 0.495 2 1 C1.67 1.66 1.34 2.32 1 3 C0.67 2.01 0.34 1.02 0 0 Z " fill="#FFDF21" transform="translate(21,152)"/>
<path d="M0 0 C0.99 0.495 0.99 0.495 2 1 C1.67 1.66 1.34 2.32 1 3 C0.67 2.01 0.34 1.02 0 0 Z " fill="#FFDF21" transform="translate(227,95)"/>
<path d="M0 0 C0 3 0 3 0 3 Z " fill="#FFDF21" transform="translate(23,93)"/>
<path d="M0 0 C0.99 0.495 0.99 0.495 2 1 C1.67 1.66 1.34 2.32 1 3 C0.67 2.01 0.34 1.02 0 0 Z " fill="#FFDF21" transform="translate(220,83)"/>
<path d="M0 0 C0 3 0 3 0 3 Z " fill="#FFDF21" transform="translate(29,83)"/>
<path d="" fill="#FFDF21" transform="translate(0,0)"/>
<path d="" fill="#FFDF21" transform="translate(0,0)"/>
<path d="" fill="#FFDF21" transform="translate(0,0)"/>
<path d="" fill="#FFDF21" transform="translate(0,0)"/>
<path d="" fill="#FFDF21" transform="translate(0,0)"/>
<path d="" fill="#FFDF21" transform="translate(0,0)"/>
<path d="" fill="#FFDF21" transform="translate(0,0)"/>
<path d="" fill="#FFDF21" transform="translate(0,0)"/>
<path d="" fill="#FFDF21" transform="translate(0,0)"/>
<path d="" fill="#FFDF21" transform="translate(0,0)"/>
<path d="" fill="#FFDF21" transform="translate(0,0)"/>
<path d="" fill="#FFDF21" transform="translate(0,0)"/>
<path d="" fill="#FFDF21" transform="translate(0,0)"/>
<path d="" fill="#FFDF21" transform="translate(0,0)"/>
<path d="" fill="#FFDF21" transform="translate(0,0)"/>
<path d="" fill="#FFDF21" transform="translate(0,0)"/>
<path d="" fill="#FFDF21" transform="translate(0,0)"/>
<path d="" fill="#FFDF21" transform="translate(0,0)"/>
<path d="" fill="#FFDF21" transform="translate(0,0)"/>
<path d="" fill="#FFDF21" transform="translate(0,0)"/>
<path d="" fill="#FFDF21" transform="translate(0,0)"/>
<path d="" fill="#FFDF21" transform="translate(0,0)"/>
<path d="" fill="#FFDF21" transform="translate(0,0)"/>
<path d="" fill="#FFDF21" transform="translate(0,0)"/>
<path d="" fill="#FFDF21" transform="translate(0,0)"/>
<path d="" fill="#FFDF21" transform="translate(0,0)"/>
<path d="" fill="#FFDF21" transform="translate(0,0)"/>
<path d="" fill="#FFDF21" transform="translate(0,0)"/>
<path d="" fill="#FFDF21" transform="translate(0,0)"/>
<path d="" fill="#FFDF21" transform="translate(0,0)"/>
<path d="" fill="#FFDF21" transform="translate(0,0)"/>
<path d="" fill="#FFDF21" transform="translate(0,0)"/>
<path d="" fill="#FFDF21" transform="translate(0,0)"/>
<path d="" fill="#FFDF21" transform="translate(0,0)"/>
<path d="" fill="#FFDF21" transform="translate(0,0)"/>
<path d="" fill="#FFDF21" transform="translate(0,0)"/>
<path d="" fill="#FFDF21" transform="translate(0,0)"/>
<path d="" fill="#FFDF21" transform="translate(0,0)"/>
<path d="" fill="#FFDF21" transform="translate(0,0)"/>
<path d="" fill="#FFDF21" transform="translate(0,0)"/>
<path d="" fill="#FFDF21" transform="translate(0,0)"/>
<path d="" fill="#FFDF21" transform="translate(0,0)"/>
<path d="" fill="#FFDF21" transform="translate(0,0)"/>
<path d="" fill="#FFDF21" transform="translate(0,0)"/>
<path d="" fill="#FFDF21" transform="translate(0,0)"/>
<path d="" fill="#FFDF21" transform="translate(0,0)"/>
<path d="" fill="#FFDF21" transform="translate(0,0)"/>
<path d="" fill="#FFDF21" transform="translate(0,0)"/>
<path d="" fill="#FFDF21" transform="translate(0,0)"/>
<path d="" fill="#FFDF21" transform="translate(0,0)"/>
<path d="" fill="#FFDF21" transform="translate(0,0)"/>
<path d="" fill="#FFDF21" transform="translate(0,0)"/>
<path d="" fill="#FFDF21" transform="translate(0,0)"/>
<path d="" fill="#FFDF21" transform="translate(0,0)"/>
<path d="" fill="#FFDF21" transform="translate(0,0)"/>
<path d="" fill="#FFDF21" transform="translate(0,0)"/>
<path d="" fill="#FFDF21" transform="translate(0,0)"/>
<path d="" fill="#FFDF21" transform="translate(0,0)"/>
<path d="" fill="#FFDF21" transform="translate(0,0)"/>
<path d="" fill="#FFDF21" transform="translate(0,0)"/>
<path d="" fill="#FFDF21" transform="translate(0,0)"/>
<path d="" fill="#FFDF21" transform="translate(0,0)"/>
<path d="" fill="#FFDF21" transform="translate(0,0)"/>
<path d="" fill="#FFDF21" transform="translate(0,0)"/>
<path d="" fill="#FFDF21" transform="translate(0,0)"/>
<path d="" fill="#FFDF21" transform="translate(0,0)"/>
<path d="" fill="#FFDF21" transform="translate(0,0)"/>
<path d="" fill="#FFDF21" transform="translate(0,0)"/>
<path d="" fill="#FFDF21" transform="translate(0,0)"/>
<path d="" fill="#FFDF21" transform="translate(0,0)"/>
<path d="" fill="#FFDF21" transform="translate(0,0)"/>
<path d="" fill="#FFDF21" transform="translate(0,0)"/>
<path d="" fill="#FFDF21" transform="translate(0,0)"/>
<path d="" fill="#FFDF21" transform="translate(0,0)"/>
<path d="" fill="#FFDF21" transform="translate(0,0)"/>
<path d="" fill="#FFDF21" transform="translate(0,0)"/>
<path d="" fill="#FFDF21" transform="translate(0,0)"/>
<path d="" fill="#FFDF21" transform="translate(0,0)"/>
<path d="" fill="#FFDF21" transform="translate(0,0)"/>
<path d="" fill="#FFDF21" transform="translate(0,0)"/>
<path d="" fill="#FFDF21" transform="translate(0,0)"/>
<path d="" fill="#FFDF21" transform="translate(0,0)"/>
<path d="" fill="#FFDF21" transform="translate(0,0)"/>
<path d="" fill="#FFDF21" transform="translate(0,0)"/>
<path d="" fill="#FFDF21" transform="translate(0,0)"/>
<path d="" fill="#FFDF21" transform="translate(0,0)"/>
<path d="" fill="#FFDF21" transform="translate(0,0)"/>
<path d="" fill="#FFDF21" transform="translate(0,0)"/>
<path d="" fill="#FFDF21" transform="translate(0,0)"/>
<path d="" fill="#FFDF21" transform="translate(0,0)"/>
<path d="" fill="#FFDF21" transform="translate(0,0)"/>
<path d="" fill="#FFDF21" transform="translate(0,0)"/>
<path d="" fill="#FFDF21" transform="translate(0,0)"/>
<path d="" fill="#FFDF21" transform="translate(0,0)"/>
<path d="" fill="#FFDF21" transform="translate(0,0)"/>
<path d="" fill="#FFDF21" transform="translate(0,0)"/>
<path d="" fill="#FFDF21" transform="translate(0,0)"/>
<path d="" fill="#FFDF21" transform="translate(0,0)"/>
<path d="" fill="#FFDF21" transform="translate(0,0)"/>
<path d="" fill="#FFDF21" transform="translate(0,0)"/>
<path d="" fill="#FFDF21" transform="translate(0,0)"/>
<path d="" fill="#FFDF21" transform="translate(0,0)"/>
<path d="" fill="#FFDF21" transform="translate(0,0)"/>
<path d="" fill="#FFDF21" transform="translate(0,0)"/>
<path d="" fill="#FFDF21" transform="translate(0,0)"/>
<path d="" fill="#FFDF21" transform="translate(0,0)"/>
<path d="" fill="#FFDF21" transform="translate(0,0)"/>
<path d="" fill="#FFDF21" transform="translate(0,0)"/>
<path d="" fill="#FFDF21" transform="translate(0,0)"/>
<path d="" fill="#FFDF21" transform="translate(0,0)"/>
<path d="" fill="#FFDF21" transform="translate(0,0)"/>
<path d="" fill="#FFDF21" transform="translate(0,0)"/>
<path d="" fill="#FFDF21" transform="translate(0,0)"/>
<path d="" fill="#FFDF21" transform="translate(0,0)"/>
<path d="" fill="#FFDF21" transform="translate(0,0)"/>
<path d="" fill="#FFDF21" transform="translate(0,0)"/>
<path d="" fill="#FFDF21" transform="translate(0,0)"/>
<path d="" fill="#FFDF21" transform="translate(0,0)"/>
<path d="" fill="#FFDF21" transform="translate(0,0)"/>
<path d="" fill="#FFDF21" transform="translate(0,0)"/>
<path d="" fill="#FFDF21" transform="translate(0,0)"/>
<path d="" fill="#FFDF21" transform="translate(0,0)"/>
<path d="" fill="#FFDF21" transform="translate(0,0)"/>
<path d="" fill="#FFDF21" transform="translate(0,0)"/>
<path d="" fill="#FFDF21" transform="translate(0,0)"/>
<path d="" fill="#FFDF21" transform="translate(0,0)"/>
<path d="" fill="#FFDF21" transform="translate(0,0)"/>
<path d="" fill="#FFDF21" transform="translate(0,0)"/>
<path d="" fill="#FFDF21" transform="translate(0,0)"/>
<path d="" fill="#FFDF21" transform="translate(0,0)"/>
<path d="" fill="#FFDF21" transform="translate(0,0)"/>
<path d="" fill="#FFDF21" transform="translate(0,0)"/>
<path d="" fill="#FFDF21" transform="translate(0,0)"/>
<path d="" fill="#FFDF21" transform="translate(0,0)"/>
<path d="" fill="#FFDF21" transform="translate(0,0)"/>
<path d="" fill="#FFDF21" transform="translate(0,0)"/>
<path d="" fill="#FFDF21" transform="translate(0,0)"/>
<path d="" fill="#FFDF21" transform="translate(0,0)"/>
<path d="" fill="#FFDF21" transform="translate(0,0)"/>
<path d="" fill="#FFDF21" transform="translate(0,0)"/>
<path d="" fill="#FFDF21" transform="translate(0,0)"/>
<path d="" fill="#FFDF21" transform="translate(0,0)"/>
<path d="" fill="#FFDF21" transform="translate(0,0)"/>
<path d="" fill="#FFDF21" transform="translate(0,0)"/>
<path d="" fill="#FFDF21" transform="translate(0,0)"/>
<path d="" fill="#FFDF21" transform="translate(0,0)"/>
<path d="" fill="#FFDF21" transform="translate(0,0)"/>
<path d="" fill="#FFDF21" transform="translate(0,0)"/>
<path d="" fill="#FFDF21" transform="translate(0,0)"/>
</svg>
