<?xml version="1.0" encoding="UTF-8" standalone="no"?>
<!-- Created with Inkscape (http://www.inkscape.org/) -->

<svg
   width="255.99998"
   height="255.99998"
   viewBox="0 0 67.733328 67.733329"
   version="1.1"
   id="svg1"
   xml:space="preserve"
   xmlns="http://www.w3.org/2000/svg"
   xmlns:svg="http://www.w3.org/2000/svg"><defs
     id="defs1" /><g
     id="layer1"
     style="display:inline"><path
       style="fill:#ffde21;fill-opacity:1;stroke-width:0.264583"
       d="M 17.065625,4.7624994 0,33.866666 17.065625,62.970833 H 50.667708 L 67.733332,33.866666 50.667708,4.7624994 Z"
       id="path8" /></g><path
     id="path7"
     style="fill-opacity:0;stroke:#252429;stroke-width:2.64583;stroke-linejoin:round"
     d="m 34.114005,53.175623 c -1.685429,-1.685429 -2.350839,-3.988038 -2.632293,-6.35492 -0.735231,-6.182912 0.858939,-12.340219 -0.05584,-19.126736 -1.856391,-1.071788 -2.997305,-2.384307 -2.736136,-3.970177 0.377346,-2.291321 1.705625,-4.165614 5.583952,-4.165614 H 46.66416 c 3.878327,0 5.206606,1.874293 5.583952,4.165614 0.261169,1.58587 -0.879745,2.898389 -2.736136,3.970177 -0.914779,6.786517 0.679391,12.943824 -0.05584,19.126736 -0.281454,2.366882 -0.946864,4.669491 -2.632293,6.35492 -1.68543,1.68543 -3.971363,2.632294 -6.354919,2.632294 -2.383556,0 -4.669489,-0.946864 -6.354919,-2.632294 z" /><path
     style="fill:#252429;fill-opacity:1;stroke:none;stroke-width:2.72888;stroke-dasharray:none;stroke-opacity:1"
     d="M 35.559179,48.028492 V 32.456717 h 9.819492 v 15.571775 c 0,1.228667 -3.033106,3.35084 -4.909746,3.35084 -1.87664,0 -4.909746,-2.122173 -4.909746,-3.35084 z"
     id="path9" /><path
     id="path6"
     style="fill:#f7db10;fill-opacity:1;stroke:#ffde21;stroke-width:2.95886;stroke-linejoin:round;stroke-opacity:1"
     d="m 19.870577,51.049857 c -1.979275,-1.794883 -2.760696,-4.247024 -3.09122,-6.767615 -0.863415,-6.584436 1.008691,-13.141605 -0.06558,-20.368843 -2.180043,-1.141391 -3.51987,-2.539146 -3.213167,-4.228004 0.443134,-2.440121 2.002992,-4.436133 6.557486,-4.436133 h 14.55069 c 4.554494,0 5.92497,1.874033 6.557486,4.436133 0.449031,1.818866 -0.474729,3.812527 -2.654772,4.953918 -1.074267,7.227238 0.239444,13.058493 -0.623975,19.642929 -0.330524,2.520591 -1.111945,4.972732 -3.09122,6.767615 -1.979277,1.794882 -4.663751,2.803237 -7.462868,2.803237 -2.799117,0 -5.483591,-1.008355 -7.462868,-2.803237 z" /><path
     id="path1"
     style="fill:#ffde21;fill-opacity:1;stroke:#252429;stroke-width:2.64583;stroke-linejoin:round"
     d="m 20.978521,49.490215 c -1.685429,-1.685429 -2.350839,-3.988038 -2.632293,-6.35492 -0.735231,-6.182912 0.858939,-12.340219 -0.05584,-19.126736 -1.856391,-1.071788 -2.997305,-2.384307 -2.736136,-3.970177 0.377346,-2.291321 1.705625,-4.165614 5.583952,-4.165614 h 12.390472 c 3.878327,0 5.206606,1.874293 5.583952,4.165614 0.261169,1.58587 -0.879745,2.898389 -2.736136,3.970177 -0.914779,6.786517 0.679391,12.943824 -0.05584,19.126736 -0.281454,2.366882 -0.946864,4.669491 -2.632293,6.35492 -1.68543,1.68543 -3.971363,2.632294 -6.354919,2.632294 -2.383556,0 -4.669489,-0.946864 -6.354919,-2.632294 z" /><path
     style="fill:#252429;fill-opacity:1;stroke:none;stroke-width:2.72888;stroke-dasharray:none;stroke-opacity:1"
     d="M 22.423695,44.343084 V 28.771309 h 9.819492 v 15.571775 c 0,1.228667 -3.033106,3.35084 -4.909746,3.35084 -1.87664,0 -4.909746,-2.122173 -4.909746,-3.35084 z"
     id="path4" /></svg>
